# xmcd
#
# Track frame offsets:
#	150
#	11647
#	18270
#	29116
#	49077
#	57007
#	78599
#	133499
#	177270
#	189824
#	231457
#
# Disc length: 3393 seconds
#
# Revision: 1
# Processed by: cddbd v1.5.1PL0 Copyright (c) Steve Scherf et al.
# Submitted via: EasyCDDAExtractor 7.0.4.1
#
DISCID=920d3f0b
DTITLE=Evegny Kissin  - Historic Russian Archives - Evegny Kissin Vol 04 - Cho
DTITLE=pin
DYEAR=1900
DGENRE=
TTITLE0=Frédéric Chopin - Waltz No. 14 in E Minor Op. Posth
TTITLE1=Frédéric Chopin - Mazurka In F Minor OP. 63 No. 2
TTITLE2=Frédéric Chopin - Mazurka In D Flat Major OP. 30 No. 3
TTITLE3=Frédéric Chopin - Mazurka In B Flat Minor Op. 24 No. 4
TTITLE4=Frédéric Chopin - Mazurka In F Minor Op. 68 No. 4
TTITLE5=Frédéric Chopin - Mazurka In C Sharp Minor Op. 50 No. 3
TTITLE6=Frédéric Chopin - Fantasie In F Minor Op. 49
TTITLE7=Frédéric Chopin - Piano Sonata No. 3 In B Minor Op. 58 - Allegro Maest
TTITLE7=oso
TTITLE8=Frédéric Chopin - Piano Sonata No. 3 In B Minor Op. 58 - Scherzo, Molt
TTITLE8=o Vivace
TTITLE9=Frédéric Chopin - Piano Sonata No. 3 In B Minor Op. 58 - Largo
TTITLE10=Frédéric Chopin - Piano Sonata No. 3 In B Minor Op. 58 - Presto, Non 
TTITLE10=Tanto
EXTD=
EXTT0=
EXTT1=
EXTT2=
EXTT3=
EXTT4=
EXTT5=
EXTT6=
EXTT7=
EXTT8=
EXTT9=
EXTT10=
PLAYORDER=
